<svg xmlns="http://www.w3.org/2000/svg" viewBox="0 0 512 512" width="512" height="512">
  <defs>
    <!-- Clean blue gradient for main theme -->
    <linearGradient id="primaryGradient" x1="0%" y1="0%" x2="100%" y2="100%">
      <stop offset="0%" style="stop-color:#6366f1;stop-opacity:1" />
      <stop offset="100%" style="stop-color:#4f46e5;stop-opacity:1" />
    </linearGradient>
    
    <!-- Subtle shadow for depth -->
    <filter id="subtleShadow" x="-30%" y="-30%" width="160%" height="160%">
      <feDropShadow dx="0" dy="8" stdDeviation="16" flood-color="#000" flood-opacity="0.15"/>
    </filter>
  </defs>
  
  <!-- Main composition centered and moderately scaled -->
  <g transform="translate(256, 256) scale(1.15)">
    <!-- Monitor stand - minimal design (placed behind screen) -->
    <rect x="-40" y="120" width="80" height="20" rx="10" ry="10" 
          fill="#6b7280" 
          opacity="0.7"/>
    
    <!-- Stand pole -->
    <rect x="-8" y="100" width="16" height="40" rx="8" ry="8" 
          fill="#6b7280" 
          opacity="0.7"/>
    
    <!-- Main screen/monitor - maximized design -->
    <rect x="-220" y="-190" width="440" height="300" rx="24" ry="24" 
          fill="url(#primaryGradient)" 
          filter="url(#subtleShadow)"/>
    
    <!-- Screen content area -->
    <rect x="-200" y="-170" width="400" height="260" rx="16" ry="16" 
          fill="#000000" 
          opacity="0.9"/>
    
    <!-- Large, centered text content - representing CueMode's big text feature -->
    <rect x="-160" y="-130" width="320" height="20" rx="10" fill="#ffffff" opacity="0.9"/>
    <rect x="-140" y="-90" width="280" height="20" rx="10" fill="#ffffff" opacity="0.8"/>
    <rect x="-120" y="-50" width="240" height="20" rx="10" fill="#ffffff" opacity="0.7"/>
    <rect x="-100" y="-10" width="200" height="20" rx="10" fill="#ffffff" opacity="0.6"/>
    
    <!-- Centered focus indicator - representing the "cue" aspect -->
    <circle cx="0" cy="-80" r="8" 
            fill="#6366f1" 
            opacity="0.8"/>
    
  </g>
</svg>
